<svg viewBox="0 0 1120 820" xmlns="http://www.w3.org/2000/svg" role="img" aria-labelledby="map-title map-desc">
<title id="map-title">Communes du programme Chiro’Larzac</title>
<desc id="map-desc">Carte fixe basée sur les limites communales du shapefile fourni. Cliquez sur une commune pour afficher ses données.</desc>
<g class="communes-layer">
<path class="commune-shape" data-code="34011" data-name="Arboras" d="M 733.5,630.6 L 737.5,644.0 L 746.0,649.2 L 758.7,666.0 L 754.8,690.3 L 741.8,717.4 L 742.2,723.9 L 736.5,726.6 L 729.8,718.0 L 712.3,707.4 L 717.6,686.1 L 714.7,676.8 L 689.3,642.6 L 676.2,636.1 L 671.8,628.1 L 688.5,598.6 L 714.6,582.7 L 711.2,600.6 L 733.5,630.6 Z" fill="#EFBB3D" fill-rule="evenodd" tabindex="0" role="button" aria-label="Arboras"/>
<path class="commune-shape" data-code="34064" data-name="Le Caylar" d="M 408.1,129.8 L 409.8,185.9 L 416.4,199.7 L 408.3,230.8 L 416.4,232.8 L 415.5,236.3 L 397.7,244.9 L 374.5,249.2 L 343.2,243.4 L 334.0,250.8 L 329.5,239.6 L 317.4,253.5 L 293.5,260.3 L 287.4,256.8 L 275.9,204.3 L 286.2,179.8 L 280.3,143.5 L 271.5,135.1 L 270.1,117.0 L 263.6,99.1 L 281.9,112.2 L 301.3,102.8 L 312.9,109.5 L 336.9,109.4 L 357.1,117.5 L 414.6,107.7 L 408.1,129.8 Z" fill="#8EC14F" fill-rule="evenodd" tabindex="0" role="button" aria-label="Le Caylar"/>
<path class="commune-shape" data-code="34091" data-name="Le Cros" d="M 476.1,35.0 L 493.4,50.2 L 502.0,50.7 L 503.2,75.0 L 494.8,98.5 L 498.1,105.8 L 496.6,113.6 L 484.4,124.5 L 485.1,132.5 L 523.5,163.5 L 524.2,183.4 L 534.1,210.4 L 520.0,208.4 L 507.6,224.8 L 488.3,231.6 L 454.5,254.8 L 439.6,242.2 L 408.3,230.8 L 416.4,199.7 L 409.8,185.9 L 408.1,129.8 L 414.6,107.7 L 411.4,105.3 L 407.6,87.3 L 416.5,70.8 L 449.1,46.3 L 451.7,54.4 L 458.4,55.3 L 470.1,45.1 L 471.3,37.1 L 476.1,35.0 Z" fill="#EFBB3D" fill-rule="evenodd" tabindex="0" role="button" aria-label="Le Cros"/>
<path class="commune-shape" data-code="34106" data-name="Fozières" d="M 387.6,585.2 L 383.9,574.2 L 392.5,571.2 L 411.1,553.5 L 414.8,542.2 L 411.1,535.1 L 433.4,528.3 L 462.1,525.9 L 472.8,542.4 L 481.9,541.6 L 502.2,565.1 L 474.6,587.2 L 435.5,587.1 L 410.8,569.2 L 403.3,571.1 L 387.6,585.2 Z" fill="#71BDD8" fill-rule="evenodd" tabindex="0" role="button" aria-label="Fozières"/>
<path class="commune-shape" data-code="34132" data-name="Lauroux" d="M 298.1,356.0 L 299.1,392.0 L 317.3,414.5 L 313.3,425.5 L 306.2,432.4 L 308.1,445.3 L 355.7,490.6 L 350.0,519.4 L 330.6,554.5 L 308.2,545.7 L 288.3,519.7 L 242.6,502.0 L 219.1,473.3 L 206.3,450.2 L 187.9,431.0 L 184.7,418.2 L 192.3,388.6 L 193.8,363.9 L 212.7,360.4 L 220.3,351.9 L 234.3,345.2 L 244.2,328.2 L 264.1,324.4 L 286.8,311.9 L 289.4,323.0 L 299.4,329.4 L 302.6,340.1 L 298.1,356.0 Z" fill="#71BDD8" fill-rule="evenodd" tabindex="0" role="button" aria-label="Lauroux"/>
<path class="commune-shape" data-code="34142" data-name="Lodève" d="M 300.8,666.3 L 280.4,670.4 L 271.3,680.0 L 266.3,678.2 L 254.4,658.3 L 248.4,675.8 L 238.4,684.0 L 229.3,685.6 L 209.6,668.1 L 214.7,648.4 L 210.0,620.4 L 217.0,621.0 L 237.3,610.6 L 252.6,614.9 L 280.6,609.0 L 288.7,612.5 L 278.2,598.1 L 285.6,594.1 L 306.1,607.9 L 331.5,548.5 L 350.0,519.1 L 373.1,531.1 L 384.9,530.1 L 385.9,525.3 L 388.8,525.5 L 399.7,533.0 L 411.3,535.5 L 414.8,542.2 L 411.1,553.5 L 392.5,571.2 L 386.0,571.6 L 383.7,578.6 L 385.7,594.5 L 394.6,614.3 L 411.2,620.3 L 392.6,659.7 L 400.6,688.7 L 411.8,701.1 L 409.4,709.5 L 415.6,723.6 L 414.5,739.0 L 406.6,732.2 L 390.6,727.6 L 383.3,715.1 L 374.7,709.1 L 360.7,706.4 L 355.5,699.5 L 349.9,687.6 L 358.3,673.6 L 367.4,672.2 L 368.9,664.0 L 330.6,661.1 L 333.3,647.0 L 329.7,624.5 L 317.9,619.9 L 308.0,623.6 L 300.8,666.3 Z" fill="#8EC14F" fill-rule="evenodd" tabindex="0" role="button" aria-label="Lodève"/>
<path class="commune-shape" data-code="34196" data-name="Pégairolles-de-l&#x27;Escalette" d="M 382.5,481.6 L 355.0,481.8 L 351.2,456.9 L 343.8,447.8 L 334.2,447.2 L 317.1,452.8 L 310.2,449.2 L 306.2,432.4 L 313.3,425.5 L 317.3,414.5 L 299.1,392.0 L 297.9,356.2 L 312.3,351.1 L 329.4,328.3 L 331.6,309.4 L 339.9,305.9 L 353.0,316.4 L 381.8,318.7 L 386.6,316.3 L 413.8,274.2 L 476.9,241.4 L 492.7,326.5 L 483.8,329.2 L 473.1,342.5 L 468.4,370.7 L 469.4,384.6 L 473.8,390.1 L 432.4,427.5 L 404.3,427.4 L 397.0,438.0 L 394.8,461.3 L 384.4,463.7 L 382.5,481.6 Z" fill="#8EC14F" fill-rule="evenodd" tabindex="0" role="button" aria-label="Pégairolles-de-l&#x27;Escalette"/>
<path class="commune-shape" data-code="34205" data-name="Les Plans" d="M 177.4,483.9 L 187.5,449.1 L 188.2,431.4 L 206.3,450.2 L 219.1,473.3 L 242.6,502.0 L 288.3,519.7 L 308.2,545.7 L 330.6,554.5 L 306.1,607.9 L 285.6,594.1 L 278.2,598.1 L 288.7,612.5 L 280.6,609.0 L 252.6,614.9 L 237.3,610.6 L 217.0,621.0 L 210.0,620.4 L 200.8,575.4 L 195.5,565.9 L 195.2,553.8 L 174.3,518.3 L 177.4,483.9 Z" fill="#EFBB3D" fill-rule="evenodd" tabindex="0" role="button" aria-label="Les Plans"/>
<path class="commune-shape" data-code="34212" data-name="Poujols" d="M 351.2,456.9 L 355.0,481.8 L 371.3,482.0 L 386.4,493.2 L 392.8,509.2 L 386.2,518.1 L 385.7,529.7 L 373.1,531.1 L 350.0,519.1 L 355.7,490.6 L 317.1,452.8 L 334.2,447.2 L 343.8,447.8 L 351.2,456.9 Z" fill="#EFBB3D" fill-rule="evenodd" tabindex="0" role="button" aria-label="Poujols"/>
<path class="commune-shape" data-code="34230" data-name="Les Rives" d="M 173.0,188.2 L 191.1,166.4 L 214.0,163.0 L 225.8,145.8 L 236.6,105.3 L 255.7,95.9 L 263.6,99.1 L 270.1,117.0 L 271.5,135.1 L 280.3,143.5 L 286.2,179.8 L 275.9,204.3 L 286.4,253.3 L 271.7,262.7 L 269.9,281.4 L 274.6,290.3 L 280.7,294.6 L 287.0,293.8 L 297.0,301.8 L 287.2,311.8 L 264.4,324.2 L 244.2,328.2 L 234.3,345.2 L 207.3,361.4 L 193.1,359.0 L 201.7,321.4 L 205.9,271.1 L 180.3,250.1 L 172.3,238.1 L 167.0,220.1 L 173.0,188.2 Z" fill="#EFBB3D" fill-rule="evenodd" tabindex="0" role="button" aria-label="Les Rives"/>
<path class="commune-shape" data-code="34251" data-name="Saint-Étienne-de-Gourgas" d="M 555.7,492.0 L 571.9,522.4 L 554.2,530.8 L 551.6,537.9 L 511.5,565.3 L 502.2,565.1 L 481.9,541.6 L 472.8,542.4 L 461.4,524.7 L 460.3,521.9 L 469.6,514.1 L 471.6,494.1 L 468.4,478.5 L 479.5,448.7 L 492.5,437.1 L 491.3,403.5 L 474.9,392.7 L 468.6,380.8 L 473.1,342.5 L 485.0,328.4 L 492.7,327.1 L 507.5,335.4 L 520.7,353.7 L 521.7,359.9 L 539.9,374.7 L 551.5,398.8 L 559.7,438.9 L 553.1,443.4 L 534.6,443.4 L 533.6,446.7 L 542.1,466.6 L 556.0,470.2 L 555.7,492.0 Z" fill="#EFBB3D" fill-rule="evenodd" tabindex="0" role="button" aria-label="Saint-Étienne-de-Gourgas"/>
<path class="commune-shape" data-code="34253" data-name="Saint-Félix-de-l&#x27;Héras" d="M 362.9,248.1 L 397.7,244.9 L 415.9,233.4 L 439.6,242.2 L 454.5,254.8 L 447.2,255.6 L 413.8,274.2 L 386.6,316.3 L 381.8,318.7 L 353.0,316.4 L 339.9,305.9 L 331.6,309.4 L 329.4,328.3 L 312.3,351.1 L 298.7,355.9 L 302.6,341.0 L 299.4,329.4 L 291.1,325.7 L 286.3,315.3 L 297.0,301.8 L 272.1,287.4 L 269.3,276.5 L 271.7,262.7 L 286.4,253.3 L 293.1,260.4 L 317.4,253.5 L 329.5,239.6 L 334.0,250.8 L 344.4,243.3 L 362.9,248.1 Z" fill="#E8DBAE" fill-rule="evenodd" tabindex="0" role="button" aria-label="Saint-Félix-de-l&#x27;Héras"/>
<path class="commune-shape" data-code="34268" data-name="Saint-Jean-de-la-Blaquière" d="M 674.1,697.2 L 660.4,735.2 L 649.3,750.2 L 641.9,773.2 L 625.6,782.2 L 613.6,771.2 L 615.3,758.8 L 602.2,748.9 L 587.7,755.7 L 584.2,761.1 L 578.1,757.5 L 570.3,745.5 L 573.9,715.2 L 558.9,668.7 L 563.1,662.2 L 564.9,644.0 L 568.5,641.5 L 575.3,644.3 L 580.4,636.1 L 578.8,606.7 L 609.1,612.8 L 621.8,610.6 L 632.0,618.7 L 658.5,626.1 L 659.1,648.7 L 675.4,665.3 L 672.0,688.4 L 674.1,697.2 Z" fill="#EFBB3D" fill-rule="evenodd" tabindex="0" role="button" aria-label="Saint-Jean-de-la-Blaquière"/>
<path class="commune-shape" data-code="34277" data-name="Saint-Maurice-Navacelles" d="M 613.3,236.3 L 613.0,223.9 L 626.0,205.1 L 655.0,185.0 L 677.9,183.7 L 687.3,177.6 L 723.8,131.6 L 735.0,112.2 L 740.8,120.4 L 753.8,115.4 L 764.5,120.1 L 774.6,114.5 L 778.5,97.2 L 784.7,96.2 L 793.0,102.5 L 801.4,99.5 L 805.0,102.2 L 811.3,111.9 L 809.2,123.0 L 826.9,132.9 L 826.6,139.1 L 819.8,140.5 L 826.1,161.4 L 822.9,174.6 L 826.9,185.6 L 824.2,194.7 L 834.2,208.5 L 837.2,229.4 L 850.9,227.7 L 891.7,240.5 L 897.5,239.1 L 900.4,226.0 L 909.4,224.7 L 931.2,240.6 L 937.4,255.7 L 953.0,264.3 L 947.9,281.4 L 935.5,292.3 L 919.6,297.4 L 914.1,310.5 L 940.2,326.5 L 935.6,334.3 L 934.3,350.4 L 928.1,360.9 L 906.0,367.7 L 896.3,384.9 L 883.7,391.2 L 877.5,417.6 L 866.5,421.2 L 863.8,429.7 L 851.9,440.4 L 829.7,412.8 L 821.7,385.2 L 799.4,359.6 L 786.4,365.7 L 762.0,343.7 L 733.6,333.6 L 706.0,312.1 L 677.4,299.2 L 660.5,297.7 L 651.3,286.3 L 627.3,274.5 L 613.3,236.3 Z" fill="#8EC14F" fill-rule="evenodd" tabindex="0" role="button" aria-label="Saint-Maurice-Navacelles"/>
<path class="commune-shape" data-code="34278" data-name="Saint-Michel" d="M 623.7,335.0 L 612.8,360.1 L 600.3,357.9 L 594.9,352.6 L 584.2,355.2 L 573.3,363.1 L 550.3,353.5 L 520.7,353.7 L 507.5,335.4 L 492.7,327.1 L 476.9,241.4 L 488.3,231.6 L 507.6,224.8 L 520.0,208.4 L 533.9,210.5 L 561.9,191.7 L 574.2,188.7 L 595.4,175.1 L 607.7,187.4 L 617.7,205.4 L 626.3,204.9 L 613.0,223.9 L 613.3,236.3 L 625.0,270.6 L 637.5,281.1 L 634.7,297.9 L 640.4,305.3 L 639.8,309.8 L 634.2,318.9 L 621.9,309.4 L 618.9,310.4 L 618.8,323.1 L 623.7,335.0 Z" fill="#71BDD8" fill-rule="evenodd" tabindex="0" role="button" aria-label="Saint-Michel"/>
<path class="commune-shape" data-code="34283" data-name="Saint-Pierre-de-la-Fage" d="M 643.3,475.7 L 626.5,499.0 L 607.4,503.9 L 599.5,501.1 L 597.8,496.1 L 565.0,512.6 L 553.9,486.1 L 556.0,470.2 L 542.1,466.6 L 533.1,443.9 L 553.1,443.4 L 559.7,438.9 L 551.5,398.8 L 539.9,374.7 L 518.8,355.3 L 550.3,353.5 L 573.3,363.1 L 584.2,355.2 L 594.9,352.6 L 600.3,357.9 L 612.8,360.1 L 623.7,335.0 L 653.9,373.3 L 664.3,398.1 L 647.7,422.5 L 647.2,444.7 L 641.8,455.5 L 643.3,475.7 Z" fill="#E8DBAE" fill-rule="evenodd" tabindex="0" role="button" aria-label="Saint-Pierre-de-la-Fage"/>
<path class="commune-shape" data-code="34286" data-name="Saint-Privat" d="M 476.1,617.9 L 483.1,605.3 L 474.6,587.2 L 482.8,578.2 L 502.2,565.1 L 514.5,564.3 L 551.6,537.9 L 554.2,530.8 L 571.9,522.4 L 565.0,512.6 L 597.8,496.1 L 599.5,501.1 L 607.4,503.9 L 626.5,499.0 L 643.4,475.2 L 667.3,487.9 L 677.9,502.5 L 700.0,518.8 L 704.4,517.0 L 706.9,505.8 L 709.4,507.4 L 710.2,518.9 L 746.5,544.3 L 749.8,565.4 L 735.7,576.8 L 726.1,576.9 L 688.5,598.6 L 677.8,597.7 L 659.8,617.3 L 658.5,626.1 L 632.0,618.7 L 621.8,610.6 L 609.1,612.8 L 562.4,601.5 L 528.2,604.8 L 506.4,601.1 L 501.4,603.0 L 499.1,615.9 L 476.1,617.9 Z" fill="#8EC14F" fill-rule="evenodd" tabindex="0" role="button" aria-label="Saint-Privat"/>
<path class="commune-shape" data-code="34287" data-name="Saint-Saturnin-de-Lucian" d="M 677.0,746.5 L 660.8,733.9 L 674.1,697.2 L 672.0,688.4 L 675.4,665.3 L 659.1,648.7 L 658.8,620.9 L 677.8,597.7 L 688.5,598.6 L 671.9,627.8 L 672.9,633.2 L 689.3,642.6 L 714.7,676.8 L 717.6,686.1 L 712.3,707.4 L 729.8,718.0 L 737.9,728.8 L 751.5,768.0 L 749.4,780.4 L 738.1,785.0 L 726.9,776.4 L 713.0,785.0 L 700.0,777.4 L 696.4,768.8 L 685.3,761.9 L 677.0,746.5 Z" fill="#71BDD8" fill-rule="evenodd" tabindex="0" role="button" aria-label="Saint-Saturnin-de-Lucian"/>
<path class="commune-shape" data-code="34303" data-name="Sorbs" d="M 563.5,45.2 L 579.0,43.4 L 600.2,51.9 L 608.0,66.4 L 634.1,95.3 L 618.0,107.9 L 624.0,120.1 L 640.3,127.9 L 625.5,135.7 L 619.3,150.0 L 616.8,174.1 L 598.8,173.3 L 574.2,188.7 L 561.9,191.7 L 534.1,210.4 L 524.2,183.4 L 523.5,163.5 L 490.7,138.5 L 485.1,132.5 L 484.4,124.5 L 496.6,113.6 L 498.1,105.8 L 494.8,98.5 L 503.2,77.0 L 502.0,50.7 L 504.4,53.7 L 531.9,58.3 L 537.2,56.6 L 540.5,45.0 L 552.6,42.1 L 563.5,45.2 Z" fill="#8EC14F" fill-rule="evenodd" tabindex="0" role="button" aria-label="Sorbs"/>
<path class="commune-shape" data-code="34304" data-name="Soubès" d="M 432.4,427.5 L 473.4,390.6 L 491.3,403.5 L 492.5,437.1 L 479.5,448.7 L 468.4,478.5 L 471.6,494.1 L 469.6,514.1 L 458.3,527.9 L 433.4,528.3 L 411.1,535.3 L 400.8,533.4 L 385.8,525.2 L 387.1,515.7 L 392.8,509.2 L 391.5,504.0 L 386.4,493.2 L 371.3,482.0 L 382.5,481.6 L 384.4,463.7 L 394.8,461.3 L 397.0,438.0 L 404.3,427.4 L 432.4,427.5 Z" fill="#E8DBAE" fill-rule="evenodd" tabindex="0" role="button" aria-label="Soubès"/>
<path class="commune-shape" data-code="34306" data-name="Soumont" d="M 410.5,713.3 L 411.8,701.1 L 400.6,688.7 L 392.6,659.7 L 411.2,620.3 L 394.8,614.6 L 385.7,594.5 L 386.7,585.5 L 403.3,571.1 L 410.8,569.2 L 435.5,587.1 L 474.5,586.9 L 483.1,605.3 L 476.4,617.6 L 467.5,621.9 L 469.0,639.5 L 477.6,657.9 L 482.7,680.9 L 444.1,687.3 L 429.7,695.1 L 436.1,710.7 L 420.6,717.5 L 415.6,723.6 L 410.5,713.3 Z" fill="#EFBB3D" fill-rule="evenodd" tabindex="0" role="button" aria-label="Soumont"/>
<path class="commune-shape" data-code="34317" data-name="La Vacquerie-et-Saint-Martin-de-Castries" d="M 654.1,373.7 L 619.5,326.5 L 618.9,310.4 L 621.9,309.4 L 634.2,318.9 L 639.8,309.8 L 640.4,305.3 L 634.7,297.9 L 634.7,288.7 L 639.4,280.8 L 651.3,286.3 L 660.5,297.7 L 685.0,302.4 L 706.0,312.1 L 733.6,333.6 L 762.0,343.7 L 786.4,365.7 L 799.4,359.6 L 821.7,385.2 L 829.7,412.8 L 851.9,440.4 L 819.3,485.7 L 814.2,499.2 L 784.6,525.3 L 775.0,550.9 L 763.3,565.0 L 749.8,565.4 L 746.5,544.3 L 710.2,518.9 L 709.4,507.4 L 706.9,505.8 L 704.4,517.0 L 700.0,518.8 L 677.9,502.5 L 667.3,487.9 L 643.4,475.2 L 641.8,455.5 L 647.2,444.7 L 647.7,422.5 L 664.3,398.1 L 654.1,373.7 Z" fill="#EFBB3D" fill-rule="evenodd" tabindex="0" role="button" aria-label="La Vacquerie-et-Saint-Martin-de-Castries"/>
</g><g class="labels-layer">
<line class="label-leader" x1="726.4" y1="657.6" x2="708.4" y2="649.6"/>
<text class="commune-label" data-label-code="34011" text-anchor="middle" font-size="10"><tspan x="708.4" y="649.6">Arboras</tspan></text>
<text class="commune-label" data-label-code="34064" text-anchor="middle" font-size="12"><tspan x="346.2" y="161.7">Le Caylar</tspan></text>
<text class="commune-label" data-label-code="34091" text-anchor="middle" font-size="12"><tspan x="456.4" y="148.0">Le Cros</tspan></text>
<text class="commune-label" data-label-code="34106" text-anchor="middle" font-size="12"><tspan x="451.1" y="559.3">Fozières</tspan></text>
<text class="commune-label" data-label-code="34132" text-anchor="middle" font-size="12"><tspan x="251.3" y="438.8">Lauroux</tspan></text>
<text class="commune-label" data-label-code="34142" text-anchor="middle" font-size="12"><tspan x="254.3" y="640.8">Lodève</tspan></text>
<text class="commune-label" data-label-code="34196" text-anchor="middle" font-size="11"><tspan x="383.9" y="356.4">Pégairolles-de-</tspan><tspan x="383.9" y="370.4">l’Escalette</tspan></text>
<text class="commune-label" data-label-code="34205" text-anchor="middle" font-size="12"><tspan x="240.5" y="532.7">Les Plans</tspan></text>
<text class="commune-label" data-label-code="34212" text-anchor="middle" font-size="11"><tspan x="359.2" y="485.3">Poujols</tspan></text>
<text class="commune-label" data-label-code="34230" text-anchor="middle" font-size="12"><tspan x="225.4" y="229.1">Les Rives</tspan></text>
<line class="label-leader" x1="508.8" y1="445.1" x2="490.8" y2="463.1"/>
<text class="commune-label" data-label-code="34251" text-anchor="middle" font-size="11"><tspan x="490.8" y="456.1">Saint-Étienne-de-</tspan><tspan x="490.8" y="470.1">Gourgas</tspan></text>
<text class="commune-label" data-label-code="34253" text-anchor="middle" font-size="11"><tspan x="342.6" y="287.6">Saint-Félix-de-</tspan><tspan x="342.6" y="301.6">l’Héras</tspan></text>
<line class="label-leader" x1="619.8" y1="692.8" x2="577.8" y2="684.8"/>
<text class="commune-label" data-label-code="34268" text-anchor="middle" font-size="9"><tspan x="577.8" y="677.8">Saint-Jean-de-</tspan><tspan x="577.8" y="691.8">la-Blaquière</tspan></text>
<text class="commune-label" data-label-code="34277" text-anchor="middle" font-size="11"><tspan x="788.4" y="262.4">Saint-Maurice-</tspan><tspan x="788.4" y="276.4">Navacelles</tspan></text>
<text class="commune-label" data-label-code="34278" text-anchor="middle" font-size="12"><tspan x="549.8" y="256.0">Saint-Michel</tspan></text>
<line class="label-leader" x1="602.8" y1="430.7" x2="624.8" y2="412.7"/>
<text class="commune-label" data-label-code="34283" text-anchor="middle" font-size="11"><tspan x="624.8" y="405.7">Saint-Pierre-de-</tspan><tspan x="624.8" y="419.7">la-Fage</tspan></text>
<text class="commune-label" data-label-code="34286" text-anchor="middle" font-size="12"><tspan x="650.3" y="548.3">Saint-Privat</tspan></text>
<line class="label-leader" x1="694.5" y1="692.8" x2="672.5" y2="696.8"/>
<text class="commune-label" data-label-code="34287" text-anchor="middle" font-size="9"><tspan x="672.5" y="689.8">Saint-Saturnin-</tspan><tspan x="672.5" y="703.8">de-Lucian</tspan></text>
<text class="commune-label" data-label-code="34303" text-anchor="middle" font-size="12"><tspan x="560.6" y="126.2">Sorbs</tspan></text>
<text class="commune-label" data-label-code="34304" text-anchor="middle" font-size="12"><tspan x="430.0" y="452.5">Soubès</tspan></text>
<text class="commune-label" data-label-code="34306" text-anchor="middle" font-size="12"><tspan x="435.5" y="648.7">Soumont</tspan></text>
<line class="label-leader" x1="746.1" y1="431.5" x2="784.1" y2="435.5"/>
<text class="commune-label" data-label-code="34317" text-anchor="middle" font-size="11"><tspan x="784.1" y="428.5">La Vacquerie-et-</tspan><tspan x="784.1" y="442.5">Saint-Martin-de-Castries</tspan></text>
</g></svg>